<?xml version="1.0" encoding="UTF-8" standalone="no"?>
<svg
   xmlns:dc="http://purl.org/dc/elements/1.1/"
   xmlns:cc="http://creativecommons.org/ns#"
   xmlns:rdf="http://www.w3.org/1999/02/22-rdf-syntax-ns#"
   xmlns:svg="http://www.w3.org/2000/svg"
   xmlns="http://www.w3.org/2000/svg"
   xmlns:sodipodi="http://sodipodi.sourceforge.net/DTD/sodipodi-0.dtd"
   xmlns:inkscape="http://www.inkscape.org/namespaces/inkscape"
   height="18"
   viewBox="0 0 18 18"
   width="18"
   version="1.1"
   id="svg8"
   sodipodi:docname="clear.svg"
   inkscape:version="1.0.1 (0767f8302a, 2020-10-17)"
   inkscape:export-filename="/home/bradley/kwola-cloud/server/kwola/images/clear.png"
   inkscape:export-xdpi="170.66667"
   inkscape:export-ydpi="170.66667">
  <metadata
     id="metadata14">
    <rdf:RDF>
      <cc:Work
         rdf:about="">
        <dc:format>image/svg+xml</dc:format>
        <dc:type
           rdf:resource="http://purl.org/dc/dcmitype/StillImage" />
        <dc:title></dc:title>
      </cc:Work>
    </rdf:RDF>
  </metadata>
  <defs
     id="defs12" />
  <sodipodi:namedview
     pagecolor="#ffffff"
     bordercolor="#666666"
     borderopacity="1"
     objecttolerance="10"
     gridtolerance="10"
     guidetolerance="10"
     inkscape:pageopacity="0"
     inkscape:pageshadow="2"
     inkscape:window-width="1920"
     inkscape:window-height="978"
     id="namedview10"
     showgrid="false"
     inkscape:zoom="17.3125"
     inkscape:cx="11.657579"
     inkscape:cy="11.646654"
     inkscape:window-x="1920"
     inkscape:window-y="27"
     inkscape:window-maximized="1"
     inkscape:current-layer="svg8"
     fit-margin-top="0"
     fit-margin-left="0"
     fit-margin-right="0"
     fit-margin-bottom="0"
     showguides="true"
     inkscape:guide-bbox="true">
    <sodipodi:guide
       position="24.169675,-1.5270758"
       orientation="0,-1"
       id="guide859" />
  </sodipodi:namedview>
  <path
     d="m 3,16 c 0,1.1 0.9,2 2,2 h 8 c 1.1,0 2,-0.9 2,-2 V 4 H 3 Z M 5.46,8.88 6.87,7.47 9,9.59 11.12,7.47 12.53,8.88 10.41,11 12.53,13.12 11.12,14.53 9,12.41 6.88,14.53 5.47,13.12 7.59,11 Z M 12.5,1 11.5,0 h -5 l -1,1 H 2 V 3 H 16 V 1 Z"
     id="path6" />
  <path
     style="fill:#ffffff;stroke-width:0;stroke-linecap:round"
     d="M 6.1986056,13.808714 5.5057892,13.115446 6.5596064,12.061332 7.613424,11.007218 6.5521586,9.945662 5.4908935,8.884106 6.1841136,8.191338 6.8773336,7.498569 7.924373,8.545313 C 8.500244,9.121023 8.984277,9.592058 9,9.592058 c 0.01572,0 0.499756,-0.471035 1.075627,-1.046745 l 1.047039,-1.046744 0.69322,0.692769 0.69322,0.692768 -1.061265,1.061556 -1.061265,1.061556 1.046784,1.047079 c 0.575732,0.575893 1.046784,1.060113 1.046784,1.076044 0,0.01593 -0.305434,0.334191 -0.678742,0.707246 L 11.12266,14.515869 10.061233,13.454733 8.999806,12.393597 7.945614,13.447789 6.8914219,14.501982 Z"
     id="path839" />
</svg>
