<?xml version="1.0" encoding="UTF-8" standalone="no"?>
<svg
   xmlns:dc="http://purl.org/dc/elements/1.1/"
   xmlns:cc="http://creativecommons.org/ns#"
   xmlns:rdf="http://www.w3.org/1999/02/22-rdf-syntax-ns#"
   xmlns:svg="http://www.w3.org/2000/svg"
   xmlns="http://www.w3.org/2000/svg"
   xmlns:sodipodi="http://sodipodi.sourceforge.net/DTD/sodipodi-0.dtd"
   xmlns:inkscape="http://www.inkscape.org/namespaces/inkscape"
   version="1.1"
   id="Capa_1"
   x="0px"
   y="0px"
   viewBox="0 0 221.213 221.213"
   style="enable-background:new 0 0 221.213 221.213;"
   xml:space="preserve"
   sodipodi:docname="scroll.svg"
   inkscape:export-filename="/home/bradley/kwola-cloud/server/kwola/images/scroll.png"
   inkscape:export-xdpi="13.89"
   inkscape:export-ydpi="13.89"
   inkscape:version="1.0.1 (0767f8302a, 2020-10-17)"><metadata
   id="metadata39"><rdf:RDF><cc:Work
       rdf:about=""><dc:format>image/svg+xml</dc:format><dc:type
         rdf:resource="http://purl.org/dc/dcmitype/StillImage" /></cc:Work></rdf:RDF></metadata><defs
   id="defs37" /><sodipodi:namedview
   pagecolor="#ffffff"
   bordercolor="#666666"
   borderopacity="1"
   objecttolerance="10"
   gridtolerance="10"
   guidetolerance="10"
   inkscape:pageopacity="0"
   inkscape:pageshadow="2"
   inkscape:window-width="1920"
   inkscape:window-height="978"
   id="namedview35"
   showgrid="false"
   inkscape:zoom="3.7565605"
   inkscape:cx="110.6065"
   inkscape:cy="99.958462"
   inkscape:window-x="1920"
   inkscape:window-y="27"
   inkscape:window-maximized="1"
   inkscape:current-layer="Capa_1"
   inkscape:document-rotation="0" />
<path
   d="M166.024,103.106h-47.918V55.189l47.687-0.001L110.607,0l-55.19,55.19l47.689-0.001v47.917H55.189l-0.001-47.688L0,110.605  l55.19,55.19l-0.001-47.689h47.917v47.918l-47.688,0.001l55.188,55.188l55.189-55.19l-47.688,0.001v-47.917h47.918l0.001,47.689  l55.188-55.188l-55.189-55.191L166.024,103.106z M21.213,110.605L40.188,91.63l0.001,37.952L21.213,110.605z M129.582,181.023  L110.605,200L91.63,181.024L129.582,181.023z M91.631,40.189l18.977-18.977l18.975,18.976L91.631,40.189z M200,110.607  l-18.975,18.975l-0.002-37.951L200,110.607z"
   id="path2" />
<g
   id="g4">
</g>
<g
   id="g6">
</g>
<g
   id="g8">
</g>
<g
   id="g10">
</g>
<g
   id="g12">
</g>
<g
   id="g14">
</g>
<g
   id="g16">
</g>
<g
   id="g18">
</g>
<g
   id="g20">
</g>
<g
   id="g22">
</g>
<g
   id="g24">
</g>
<g
   id="g26">
</g>
<g
   id="g28">
</g>
<g
   id="g30">
</g>
<g
   id="g32">
</g>
<path
   style="fill:#ffffff;stroke-width:0;stroke-linecap:round"
   d="m 101.28948,30.879304 9.31419,-9.317044 9.2519,9.249067 c 5.08854,5.086987 9.2519,9.279656 9.2519,9.317044 0,0.03739 -8.35474,0.06798 -18.56609,0.06798 H 91.975285 Z"
   id="path845" /><path
   style="fill:#ffffff;stroke-width:0;stroke-linecap:round"
   d="m 30.678205,119.72245 -9.115946,-9.11882 9.183944,-9.18105 9.183943,-9.181052 V 110.5414 c 0,10.06493 -0.0306,18.29987 -0.068,18.29987 -0.0374,0 -4.170173,-4.10347 -9.183944,-9.11882 z"
   id="path855" /><path
   style="fill:#ffffff;stroke-width:0;stroke-linecap:round"
   d="m 101.28947,190.33369 -9.314185,-9.31704 h 18.631215 18.63122 l -9.31419,9.31704 c -5.1228,5.12437 -9.31546,9.31703 -9.31703,9.31703 -0.002,0 -4.19423,-4.19266 -9.31703,-9.31703 z"
   id="path857" /><path
   style="fill:#ffffff;stroke-width:0;stroke-linecap:round"
   d="M 181.28285,110.5414 V 92.241528 l 9.18395,9.181052 9.18394,9.18105 -9.11595,9.11882 c -5.01377,5.01535 -9.14654,9.11882 -9.18394,9.11882 -0.0374,0 -0.068,-8.23494 -0.068,-18.29987 z"
   id="path859" /></svg>
